<mxfile host="app.diagrams.net" agent="Mozilla/5.0 (Windows NT 10.0; Win64; x64) AppleWebKit/537.36 (KHTML, like Gecko) Chrome/136.0.0.0 Safari/537.36" version="26.2.14">
  <diagram name="Page-1" id="6eIEBfMYys73W5cTSVYR">
    <mxGraphModel dx="2246" dy="1326" grid="1" gridSize="10" guides="1" tooltips="1" connect="1" arrows="1" fold="1" page="1" pageScale="1" pageWidth="850" pageHeight="1100" math="0" shadow="0">
      <root>
        <mxCell id="0" />
        <mxCell id="1" parent="0" />
        <mxCell id="383npWacxUT3jFQ8tQJW-1" value="BackendServices" style="whiteSpace=wrap;strokeWidth=2;" vertex="1" parent="1">
          <mxGeometry x="82" y="639" width="3028" height="104" as="geometry" />
        </mxCell>
        <mxCell id="383npWacxUT3jFQ8tQJW-2" value="AdminDashboard" style="whiteSpace=wrap;strokeWidth=2;" vertex="1" parent="1">
          <mxGeometry x="3131" y="461" width="942" height="282" as="geometry" />
        </mxCell>
        <mxCell id="383npWacxUT3jFQ8tQJW-3" value="DoctorDashboard" style="whiteSpace=wrap;strokeWidth=2;" vertex="1" parent="1">
          <mxGeometry x="20" y="332" width="1429" height="257" as="geometry" />
        </mxCell>
        <mxCell id="383npWacxUT3jFQ8tQJW-4" value="PatientDashboard" style="whiteSpace=wrap;strokeWidth=2;" vertex="1" parent="1">
          <mxGeometry x="1469" y="332" width="1587" height="257" as="geometry" />
        </mxCell>
        <mxCell id="383npWacxUT3jFQ8tQJW-5" value="Start Application" style="whiteSpace=wrap;strokeWidth=2;" vertex="1" parent="1">
          <mxGeometry x="2217" y="20" width="180" height="54" as="geometry" />
        </mxCell>
        <mxCell id="383npWacxUT3jFQ8tQJW-6" value="Main.java initializes" style="whiteSpace=wrap;strokeWidth=2;" vertex="1" parent="1">
          <mxGeometry x="2205" y="124" width="204" height="54" as="geometry" />
        </mxCell>
        <mxCell id="383npWacxUT3jFQ8tQJW-7" value="Start Chat Server" style="whiteSpace=wrap;strokeWidth=2;" vertex="1" parent="1">
          <mxGeometry x="2094" y="228" width="183" height="54" as="geometry" />
        </mxCell>
        <mxCell id="383npWacxUT3jFQ8tQJW-8" value="Launch LoginScreen" style="whiteSpace=wrap;strokeWidth=2;" vertex="1" parent="1">
          <mxGeometry x="2327" y="228" width="202" height="54" as="geometry" />
        </mxCell>
        <mxCell id="383npWacxUT3jFQ8tQJW-9" value="Login as Patient" style="whiteSpace=wrap;strokeWidth=2;" vertex="1" parent="1">
          <mxGeometry x="2341" y="357" width="174" height="54" as="geometry" />
        </mxCell>
        <mxCell id="383npWacxUT3jFQ8tQJW-10" value="Login as Doctor" style="whiteSpace=wrap;strokeWidth=2;" vertex="1" parent="1">
          <mxGeometry x="783" y="357" width="170" height="54" as="geometry" />
        </mxCell>
        <mxCell id="383npWacxUT3jFQ8tQJW-11" value="Login as Administrator" style="whiteSpace=wrap;strokeWidth=2;" vertex="1" parent="1">
          <mxGeometry x="3386" y="498" width="220" height="54" as="geometry" />
        </mxCell>
        <mxCell id="383npWacxUT3jFQ8tQJW-12" value="Upload/View Vitals" style="whiteSpace=wrap;strokeWidth=2;" vertex="1" parent="1">
          <mxGeometry x="1504" y="498" width="197" height="54" as="geometry" />
        </mxCell>
        <mxCell id="383npWacxUT3jFQ8tQJW-13" value="Request Appointment" style="whiteSpace=wrap;strokeWidth=2;" vertex="1" parent="1">
          <mxGeometry x="1751" y="498" width="213" height="54" as="geometry" />
        </mxCell>
        <mxCell id="383npWacxUT3jFQ8tQJW-14" value="Request Video Call" style="whiteSpace=wrap;strokeWidth=2;" vertex="1" parent="1">
          <mxGeometry x="2015" y="498" width="194" height="54" as="geometry" />
        </mxCell>
        <mxCell id="383npWacxUT3jFQ8tQJW-15" value="Panic Button" style="whiteSpace=wrap;strokeWidth=2;" vertex="1" parent="1">
          <mxGeometry x="2743" y="498" width="150" height="54" as="geometry" />
        </mxCell>
        <mxCell id="383npWacxUT3jFQ8tQJW-16" value="View/Add Feedback" style="whiteSpace=wrap;strokeWidth=2;" vertex="1" parent="1">
          <mxGeometry x="2490" y="498" width="203" height="54" as="geometry" />
        </mxCell>
        <mxCell id="383npWacxUT3jFQ8tQJW-17" value="Chat with Doctor" style="whiteSpace=wrap;strokeWidth=2;" vertex="1" parent="1">
          <mxGeometry x="2258" y="498" width="182" height="54" as="geometry" />
        </mxCell>
        <mxCell id="383npWacxUT3jFQ8tQJW-18" value="Approve/Reject Appointments" style="whiteSpace=wrap;strokeWidth=2;" vertex="1" parent="1">
          <mxGeometry x="55" y="486" width="260" height="78" as="geometry" />
        </mxCell>
        <mxCell id="383npWacxUT3jFQ8tQJW-19" value="Approve/Reject Video Calls" style="whiteSpace=wrap;strokeWidth=2;" vertex="1" parent="1">
          <mxGeometry x="365" y="498" width="257" height="54" as="geometry" />
        </mxCell>
        <mxCell id="383npWacxUT3jFQ8tQJW-20" value="Give Feedback" style="whiteSpace=wrap;strokeWidth=2;" vertex="1" parent="1">
          <mxGeometry x="672" y="498" width="165" height="54" as="geometry" />
        </mxCell>
        <mxCell id="383npWacxUT3jFQ8tQJW-21" value="View Vitals/Graph" style="whiteSpace=wrap;strokeWidth=2;" vertex="1" parent="1">
          <mxGeometry x="887" y="498" width="190" height="54" as="geometry" />
        </mxCell>
        <mxCell id="383npWacxUT3jFQ8tQJW-22" value="Chat with Patient" style="whiteSpace=wrap;strokeWidth=2;" vertex="1" parent="1">
          <mxGeometry x="1127" y="498" width="186" height="54" as="geometry" />
        </mxCell>
        <mxCell id="383npWacxUT3jFQ8tQJW-23" value="Manage Doctors" style="whiteSpace=wrap;strokeWidth=2;" vertex="1" parent="1">
          <mxGeometry x="3185" y="664" width="172" height="54" as="geometry" />
        </mxCell>
        <mxCell id="383npWacxUT3jFQ8tQJW-24" value="Manage Patients" style="whiteSpace=wrap;strokeWidth=2;" vertex="1" parent="1">
          <mxGeometry x="3407" y="664" width="176" height="54" as="geometry" />
        </mxCell>
        <mxCell id="383npWacxUT3jFQ8tQJW-25" value="Manage Admins" style="whiteSpace=wrap;strokeWidth=2;" vertex="1" parent="1">
          <mxGeometry x="3634" y="664" width="169" height="54" as="geometry" />
        </mxCell>
        <mxCell id="383npWacxUT3jFQ8tQJW-26" value="View System Logs" style="whiteSpace=wrap;strokeWidth=2;" vertex="1" parent="1">
          <mxGeometry x="3853" y="664" width="186" height="54" as="geometry" />
        </mxCell>
        <mxCell id="383npWacxUT3jFQ8tQJW-27" value="AppointmentManager" style="whiteSpace=wrap;strokeWidth=2;" vertex="1" parent="1">
          <mxGeometry x="117" y="664" width="212" height="54" as="geometry" />
        </mxCell>
        <mxCell id="383npWacxUT3jFQ8tQJW-28" value="VideoCallManager" style="whiteSpace=wrap;strokeWidth=2;" vertex="1" parent="1">
          <mxGeometry x="1168" y="664" width="187" height="54" as="geometry" />
        </mxCell>
        <mxCell id="383npWacxUT3jFQ8tQJW-29" value="ChatManager" style="whiteSpace=wrap;strokeWidth=2;" vertex="1" parent="1">
          <mxGeometry x="1667" y="664" width="153" height="54" as="geometry" />
        </mxCell>
        <mxCell id="383npWacxUT3jFQ8tQJW-30" value="NotificationService" style="whiteSpace=wrap;strokeWidth=2;" vertex="1" parent="1">
          <mxGeometry x="1992" y="664" width="196" height="54" as="geometry" />
        </mxCell>
        <mxCell id="383npWacxUT3jFQ8tQJW-31" value="DataManager" style="whiteSpace=wrap;strokeWidth=2;" vertex="1" parent="1">
          <mxGeometry x="2870" y="664" width="153" height="54" as="geometry" />
        </mxCell>
        <mxCell id="383npWacxUT3jFQ8tQJW-32" value="" style="curved=1;startArrow=none;endArrow=block;exitX=0.5;exitY=1;entryX=0.5;entryY=0;rounded=0;" edge="1" parent="1" source="383npWacxUT3jFQ8tQJW-5" target="383npWacxUT3jFQ8tQJW-6">
          <mxGeometry relative="1" as="geometry">
            <Array as="points" />
          </mxGeometry>
        </mxCell>
        <mxCell id="383npWacxUT3jFQ8tQJW-33" value="" style="curved=1;startArrow=none;endArrow=block;exitX=0.19;exitY=1;entryX=0.5;entryY=0;rounded=0;" edge="1" parent="1" source="383npWacxUT3jFQ8tQJW-6" target="383npWacxUT3jFQ8tQJW-7">
          <mxGeometry relative="1" as="geometry">
            <Array as="points">
              <mxPoint x="2185" y="203" />
            </Array>
          </mxGeometry>
        </mxCell>
        <mxCell id="383npWacxUT3jFQ8tQJW-34" value="" style="curved=1;startArrow=none;endArrow=block;exitX=0.81;exitY=1;entryX=0.5;entryY=0;rounded=0;" edge="1" parent="1" source="383npWacxUT3jFQ8tQJW-6" target="383npWacxUT3jFQ8tQJW-8">
          <mxGeometry relative="1" as="geometry">
            <Array as="points">
              <mxPoint x="2428" y="203" />
            </Array>
          </mxGeometry>
        </mxCell>
        <mxCell id="383npWacxUT3jFQ8tQJW-35" value="" style="curved=1;startArrow=none;endArrow=block;exitX=0.5;exitY=1;entryX=0.5;entryY=0;rounded=0;" edge="1" parent="1" source="383npWacxUT3jFQ8tQJW-8" target="383npWacxUT3jFQ8tQJW-9">
          <mxGeometry relative="1" as="geometry">
            <Array as="points" />
          </mxGeometry>
        </mxCell>
        <mxCell id="383npWacxUT3jFQ8tQJW-36" value="" style="curved=1;startArrow=none;endArrow=block;exitX=0;exitY=0.56;entryX=0.5;entryY=0;rounded=0;" edge="1" parent="1" source="383npWacxUT3jFQ8tQJW-8" target="383npWacxUT3jFQ8tQJW-10">
          <mxGeometry relative="1" as="geometry">
            <Array as="points">
              <mxPoint x="868" y="307" />
            </Array>
          </mxGeometry>
        </mxCell>
        <mxCell id="383npWacxUT3jFQ8tQJW-37" value="" style="curved=1;startArrow=none;endArrow=block;exitX=1;exitY=0.59;entryX=0.5;entryY=0;rounded=0;" edge="1" parent="1" source="383npWacxUT3jFQ8tQJW-8" target="383npWacxUT3jFQ8tQJW-11">
          <mxGeometry relative="1" as="geometry">
            <Array as="points">
              <mxPoint x="3495" y="307" />
            </Array>
          </mxGeometry>
        </mxCell>
        <mxCell id="383npWacxUT3jFQ8tQJW-38" value="" style="curved=1;startArrow=none;endArrow=block;exitX=0;exitY=0.6;entryX=0.5;entryY=0;rounded=0;" edge="1" parent="1" source="383npWacxUT3jFQ8tQJW-9" target="383npWacxUT3jFQ8tQJW-12">
          <mxGeometry relative="1" as="geometry">
            <Array as="points">
              <mxPoint x="1603" y="436" />
            </Array>
          </mxGeometry>
        </mxCell>
        <mxCell id="383npWacxUT3jFQ8tQJW-39" value="" style="curved=1;startArrow=none;endArrow=block;exitX=0;exitY=0.65;entryX=0.5;entryY=0;rounded=0;" edge="1" parent="1" source="383npWacxUT3jFQ8tQJW-9" target="383npWacxUT3jFQ8tQJW-13">
          <mxGeometry relative="1" as="geometry">
            <Array as="points">
              <mxPoint x="1858" y="436" />
            </Array>
          </mxGeometry>
        </mxCell>
        <mxCell id="383npWacxUT3jFQ8tQJW-40" value="" style="curved=1;startArrow=none;endArrow=block;exitX=0;exitY=0.76;entryX=0.5;entryY=0;rounded=0;" edge="1" parent="1" source="383npWacxUT3jFQ8tQJW-9" target="383npWacxUT3jFQ8tQJW-14">
          <mxGeometry relative="1" as="geometry">
            <Array as="points">
              <mxPoint x="2111" y="436" />
            </Array>
          </mxGeometry>
        </mxCell>
        <mxCell id="383npWacxUT3jFQ8tQJW-41" value="" style="curved=1;startArrow=none;endArrow=block;exitX=1;exitY=0.71;entryX=0.5;entryY=0;rounded=0;" edge="1" parent="1" source="383npWacxUT3jFQ8tQJW-9" target="383npWacxUT3jFQ8tQJW-15">
          <mxGeometry relative="1" as="geometry">
            <Array as="points">
              <mxPoint x="2818" y="436" />
            </Array>
          </mxGeometry>
        </mxCell>
        <mxCell id="383npWacxUT3jFQ8tQJW-42" value="" style="curved=1;startArrow=none;endArrow=block;exitX=0.99;exitY=1;entryX=0.5;entryY=0;rounded=0;" edge="1" parent="1" source="383npWacxUT3jFQ8tQJW-9" target="383npWacxUT3jFQ8tQJW-16">
          <mxGeometry relative="1" as="geometry">
            <Array as="points">
              <mxPoint x="2591" y="436" />
            </Array>
          </mxGeometry>
        </mxCell>
        <mxCell id="383npWacxUT3jFQ8tQJW-43" value="" style="curved=1;startArrow=none;endArrow=block;exitX=0.26;exitY=1;entryX=0.5;entryY=0;rounded=0;" edge="1" parent="1" source="383npWacxUT3jFQ8tQJW-9" target="383npWacxUT3jFQ8tQJW-17">
          <mxGeometry relative="1" as="geometry">
            <Array as="points">
              <mxPoint x="2349" y="436" />
            </Array>
          </mxGeometry>
        </mxCell>
        <mxCell id="383npWacxUT3jFQ8tQJW-44" value="" style="curved=1;startArrow=none;endArrow=block;exitX=0;exitY=0.62;entryX=0.5;entryY=0;rounded=0;" edge="1" parent="1" source="383npWacxUT3jFQ8tQJW-10" target="383npWacxUT3jFQ8tQJW-18">
          <mxGeometry relative="1" as="geometry">
            <Array as="points">
              <mxPoint x="185" y="436" />
            </Array>
          </mxGeometry>
        </mxCell>
        <mxCell id="383npWacxUT3jFQ8tQJW-45" value="" style="curved=1;startArrow=none;endArrow=block;exitX=0;exitY=0.72;entryX=0.5;entryY=0;rounded=0;" edge="1" parent="1" source="383npWacxUT3jFQ8tQJW-10" target="383npWacxUT3jFQ8tQJW-19">
          <mxGeometry relative="1" as="geometry">
            <Array as="points">
              <mxPoint x="493" y="436" />
            </Array>
          </mxGeometry>
        </mxCell>
        <mxCell id="383npWacxUT3jFQ8tQJW-46" value="" style="curved=1;startArrow=none;endArrow=block;exitX=0.15;exitY=1;entryX=0.5;entryY=0;rounded=0;" edge="1" parent="1" source="383npWacxUT3jFQ8tQJW-10" target="383npWacxUT3jFQ8tQJW-20">
          <mxGeometry relative="1" as="geometry">
            <Array as="points">
              <mxPoint x="754" y="436" />
            </Array>
          </mxGeometry>
        </mxCell>
        <mxCell id="383npWacxUT3jFQ8tQJW-47" value="" style="curved=1;startArrow=none;endArrow=block;exitX=0.85;exitY=1;entryX=0.5;entryY=0;rounded=0;" edge="1" parent="1" source="383npWacxUT3jFQ8tQJW-10" target="383npWacxUT3jFQ8tQJW-21">
          <mxGeometry relative="1" as="geometry">
            <Array as="points">
              <mxPoint x="982" y="436" />
            </Array>
          </mxGeometry>
        </mxCell>
        <mxCell id="383npWacxUT3jFQ8tQJW-48" value="" style="curved=1;startArrow=none;endArrow=block;exitX=1;exitY=0.73;entryX=0.5;entryY=0;rounded=0;" edge="1" parent="1" source="383npWacxUT3jFQ8tQJW-10" target="383npWacxUT3jFQ8tQJW-22">
          <mxGeometry relative="1" as="geometry">
            <Array as="points">
              <mxPoint x="1220" y="436" />
            </Array>
          </mxGeometry>
        </mxCell>
        <mxCell id="383npWacxUT3jFQ8tQJW-49" value="" style="curved=1;startArrow=none;endArrow=block;exitX=0.07;exitY=1;entryX=0.5;entryY=0;rounded=0;" edge="1" parent="1" source="383npWacxUT3jFQ8tQJW-11" target="383npWacxUT3jFQ8tQJW-23">
          <mxGeometry relative="1" as="geometry">
            <Array as="points">
              <mxPoint x="3271" y="589" />
            </Array>
          </mxGeometry>
        </mxCell>
        <mxCell id="383npWacxUT3jFQ8tQJW-50" value="" style="curved=1;startArrow=none;endArrow=block;exitX=0.5;exitY=1;entryX=0.5;entryY=0;rounded=0;" edge="1" parent="1" source="383npWacxUT3jFQ8tQJW-11" target="383npWacxUT3jFQ8tQJW-24">
          <mxGeometry relative="1" as="geometry">
            <Array as="points" />
          </mxGeometry>
        </mxCell>
        <mxCell id="383npWacxUT3jFQ8tQJW-51" value="" style="curved=1;startArrow=none;endArrow=block;exitX=0.92;exitY=1;entryX=0.5;entryY=0;rounded=0;" edge="1" parent="1" source="383npWacxUT3jFQ8tQJW-11" target="383npWacxUT3jFQ8tQJW-25">
          <mxGeometry relative="1" as="geometry">
            <Array as="points">
              <mxPoint x="3718" y="589" />
            </Array>
          </mxGeometry>
        </mxCell>
        <mxCell id="383npWacxUT3jFQ8tQJW-52" value="" style="curved=1;startArrow=none;endArrow=block;exitX=1;exitY=0.79;entryX=0.5;entryY=0;rounded=0;" edge="1" parent="1" source="383npWacxUT3jFQ8tQJW-11" target="383npWacxUT3jFQ8tQJW-26">
          <mxGeometry relative="1" as="geometry">
            <Array as="points">
              <mxPoint x="3945" y="589" />
            </Array>
          </mxGeometry>
        </mxCell>
        <mxCell id="383npWacxUT3jFQ8tQJW-53" value="" style="curved=1;startArrow=none;endArrow=block;exitX=0.5;exitY=1;entryX=1;entryY=0.39;rounded=0;" edge="1" parent="1" source="383npWacxUT3jFQ8tQJW-13" target="383npWacxUT3jFQ8tQJW-27">
          <mxGeometry relative="1" as="geometry">
            <Array as="points">
              <mxPoint x="1858" y="589" />
              <mxPoint x="1125" y="614" />
              <mxPoint x="1125" y="639" />
            </Array>
          </mxGeometry>
        </mxCell>
        <mxCell id="383npWacxUT3jFQ8tQJW-54" value="" style="curved=1;startArrow=none;endArrow=block;exitX=0.5;exitY=1;entryX=0.41;entryY=0;rounded=0;" edge="1" parent="1" source="383npWacxUT3jFQ8tQJW-18" target="383npWacxUT3jFQ8tQJW-27">
          <mxGeometry relative="1" as="geometry">
            <Array as="points">
              <mxPoint x="185" y="639" />
            </Array>
          </mxGeometry>
        </mxCell>
        <mxCell id="383npWacxUT3jFQ8tQJW-55" value="" style="curved=1;startArrow=none;endArrow=block;exitX=0.5;exitY=1;entryX=1;entryY=0.24;rounded=0;" edge="1" parent="1" source="383npWacxUT3jFQ8tQJW-14" target="383npWacxUT3jFQ8tQJW-28">
          <mxGeometry relative="1" as="geometry">
            <Array as="points">
              <mxPoint x="2111" y="589" />
              <mxPoint x="1614" y="614" />
              <mxPoint x="1614" y="639" />
            </Array>
          </mxGeometry>
        </mxCell>
        <mxCell id="383npWacxUT3jFQ8tQJW-56" value="" style="curved=1;startArrow=none;endArrow=block;exitX=0.5;exitY=1;entryX=0.18;entryY=0;rounded=0;" edge="1" parent="1" source="383npWacxUT3jFQ8tQJW-19" target="383npWacxUT3jFQ8tQJW-28">
          <mxGeometry relative="1" as="geometry">
            <Array as="points">
              <mxPoint x="493" y="589" />
              <mxPoint x="1145" y="614" />
              <mxPoint x="1145" y="639" />
            </Array>
          </mxGeometry>
        </mxCell>
        <mxCell id="383npWacxUT3jFQ8tQJW-57" value="" style="curved=1;startArrow=none;endArrow=block;exitX=0.5;exitY=1;entryX=0.85;entryY=0;rounded=0;" edge="1" parent="1" source="383npWacxUT3jFQ8tQJW-17" target="383npWacxUT3jFQ8tQJW-29">
          <mxGeometry relative="1" as="geometry">
            <Array as="points">
              <mxPoint x="2349" y="589" />
              <mxPoint x="1846" y="614" />
              <mxPoint x="1846" y="639" />
            </Array>
          </mxGeometry>
        </mxCell>
        <mxCell id="383npWacxUT3jFQ8tQJW-58" value="" style="curved=1;startArrow=none;endArrow=block;exitX=0.5;exitY=1;entryX=0.13;entryY=0;rounded=0;" edge="1" parent="1" source="383npWacxUT3jFQ8tQJW-22" target="383npWacxUT3jFQ8tQJW-29">
          <mxGeometry relative="1" as="geometry">
            <Array as="points">
              <mxPoint x="1220" y="589" />
              <mxPoint x="1634" y="614" />
              <mxPoint x="1634" y="639" />
            </Array>
          </mxGeometry>
        </mxCell>
        <mxCell id="383npWacxUT3jFQ8tQJW-59" value="" style="curved=1;startArrow=none;endArrow=block;exitX=0.5;exitY=1;entryX=0.5;entryY=0;rounded=0;" edge="1" parent="1" source="383npWacxUT3jFQ8tQJW-15" target="383npWacxUT3jFQ8tQJW-30">
          <mxGeometry relative="1" as="geometry">
            <Array as="points">
              <mxPoint x="2818" y="589" />
              <mxPoint x="2090" y="614" />
            </Array>
          </mxGeometry>
        </mxCell>
        <mxCell id="383npWacxUT3jFQ8tQJW-60" value="" style="curved=1;startArrow=none;endArrow=block;exitX=1;exitY=0.65;entryX=0.68;entryY=0;rounded=0;" edge="1" parent="1" source="383npWacxUT3jFQ8tQJW-9" target="383npWacxUT3jFQ8tQJW-31">
          <mxGeometry relative="1" as="geometry">
            <Array as="points">
              <mxPoint x="2999" y="436" />
              <mxPoint x="2999" y="639" />
            </Array>
          </mxGeometry>
        </mxCell>
        <mxCell id="383npWacxUT3jFQ8tQJW-61" value="" style="curved=1;startArrow=none;endArrow=block;exitX=1;exitY=0.66;entryX=0;entryY=0.4;rounded=0;" edge="1" parent="1" source="383npWacxUT3jFQ8tQJW-10" target="383npWacxUT3jFQ8tQJW-31">
          <mxGeometry relative="1" as="geometry">
            <Array as="points">
              <mxPoint x="1386" y="436" />
              <mxPoint x="1386" y="589" />
              <mxPoint x="2212" y="614" />
              <mxPoint x="2212" y="639" />
            </Array>
          </mxGeometry>
        </mxCell>
        <mxCell id="383npWacxUT3jFQ8tQJW-62" value="" style="curved=1;startArrow=none;endArrow=block;exitX=0;exitY=0.96;entryX=1;entryY=0.22;rounded=0;" edge="1" parent="1" source="383npWacxUT3jFQ8tQJW-11" target="383npWacxUT3jFQ8tQJW-31">
          <mxGeometry relative="1" as="geometry">
            <Array as="points">
              <mxPoint x="3210" y="589" />
              <mxPoint x="3210" y="639" />
            </Array>
          </mxGeometry>
        </mxCell>
      </root>
    </mxGraphModel>
  </diagram>
</mxfile>
